<svg width="206" height="213" viewBox="0 0 206 213" fill="none" xmlns="http://www.w3.org/2000/svg">
<rect y="30.8146" width="176.54" height="184.035" rx="18" transform="rotate(-10.0523 0 30.8146)" fill="url(#paint0_linear_23_54)"/>
<path d="M38.3325 47.981C38.4185 48.4657 38.8507 48.75 39.3353 48.6641C39.8469 48.5734 40.155 48.1578 40.0691 47.6732C39.982 47.1818 39.5498 46.8974 39.0382 46.9881C38.5536 47.074 38.2454 47.4897 38.3325 47.981ZM40.2302 57.1975L41.4485 56.9816L40.1932 49.9006L38.9749 50.1165L40.2302 57.1975ZM44.0197 56.5258L45.238 56.3098L44.5388 52.3654C44.3216 51.1404 44.7568 50.0705 46.002 49.8497C46.9646 49.6791 47.6381 50.1498 47.835 51.2604L48.6237 55.7096L49.842 55.4937L48.9853 50.6608C48.7037 49.0723 47.5905 48.4712 46.1635 48.7242C44.6827 48.9867 44.3405 49.9152 44.2645 50.5049L44.1972 50.5168L43.9693 49.2312L42.7645 49.4448L44.0197 56.5258ZM53.3332 47.4602C51.6841 47.7525 50.7922 49.1047 51.112 50.9086L51.3554 52.2818C51.6752 54.0857 52.9494 55.0469 54.5985 54.7546C55.6351 54.5709 56.4262 53.903 56.5072 53.1458L56.5678 53.1351L56.7682 54.2659L57.9394 54.0582L56.2248 44.3858L55.0065 44.6018L55.652 48.2432L55.5914 48.254C55.181 47.5839 54.3294 47.2836 53.3332 47.4602ZM53.7672 48.4593C54.8442 48.2684 55.7725 48.9231 55.9718 50.0471L56.1889 51.2722C56.4144 52.5443 55.8338 53.4595 54.7232 53.6564C53.5991 53.8557 52.7773 53.1752 52.5339 51.8021L52.3812 50.9405C52.1402 49.5809 52.6633 48.655 53.7672 48.4593ZM64.8556 45.5287L63.6373 45.7447L64.4284 50.2073C64.5895 51.116 63.9368 52.0162 62.9002 52.2C62.0588 52.3491 61.2932 52.103 61.0844 50.9251L60.2718 46.3413L59.0535 46.5572L59.9245 51.4709C60.2157 53.1132 61.3319 53.5749 62.7522 53.3231C63.9907 53.1036 64.5306 52.272 64.6299 51.6573L64.6972 51.6454L64.906 52.8233L66.1108 52.6097L64.8556 45.5287ZM67.2756 47.1963C67.5226 48.5897 68.6465 48.7028 70.0135 48.7382C71.0309 48.7592 71.8447 48.7677 71.9843 49.5552C72.0928 50.1677 71.7246 50.7537 70.6073 50.9518C69.6178 51.1272 69.1099 50.8076 68.9047 50.1983L67.7133 50.4095C67.9376 51.6749 69.1466 52.1896 70.7217 51.9104C72.4179 51.6097 73.4067 50.6083 73.1573 49.2015C72.9127 47.8216 71.7499 47.6459 70.3834 47.6521C69.5561 47.646 68.5812 47.7078 68.4321 46.8664C68.3104 46.1798 68.8347 45.6912 69.6626 45.5444C70.6117 45.3761 71.1636 45.8268 71.2911 46.311L72.4219 46.1105C72.2107 44.9191 71.0615 44.3106 69.5336 44.5814C68.1537 44.826 67.0095 45.6953 67.2756 47.1963ZM74.6528 43.8128L73.5624 44.0061L73.7378 44.9956L74.8215 44.8035L75.5457 48.8892C75.7939 50.2892 76.2719 50.871 77.9547 50.5727C78.2239 50.5249 78.716 50.403 78.8122 50.3582L78.6392 49.3822C78.5272 49.4159 78.2615 49.4838 78.0865 49.5149C77.2249 49.6676 76.9041 49.5023 76.7561 48.6677L76.033 44.5887L77.635 44.3047L77.4596 43.3152L75.8576 43.5992L75.5426 41.8222L74.3378 42.0358L74.6528 43.8128ZM80.8113 50.0038L82.0364 49.7866L81.2608 45.4115C81.0902 44.4489 81.577 43.592 82.8222 43.3713C83.0376 43.3331 83.2823 43.3036 83.4015 43.3103L83.2046 42.1996C83.0597 42.2045 82.9092 42.2173 82.7544 42.2447C81.5025 42.4667 81.121 43.291 81.0283 43.7865L80.9677 43.7972L80.7744 42.7068L79.5561 42.9228L80.8113 50.0038ZM90.7094 40.9457L89.417 41.1747L88.5831 47.3973L88.5293 47.4068L85.614 41.8489L84.2611 42.0887L88.1312 48.8034L88.1037 49.079C88.0303 49.9182 87.6758 50.3074 86.8815 50.4481C86.7401 50.4732 86.4673 50.5007 86.3572 50.5064L86.5315 51.4891C86.7136 51.4985 87.0268 51.4638 87.2422 51.4256C88.474 51.2072 89.0849 50.5019 89.383 48.8939L89.4631 48.484C89.4607 48.4705 90.6606 41.3361 90.7094 40.9457ZM99.4967 46.8095C101.287 46.4921 101.945 45.23 101.919 44.457L100.667 44.6789C100.624 45.1379 100.135 45.6341 99.3074 45.7808C98.1295 45.9896 97.3452 45.247 97.1507 44.1498L97.0875 43.7931L101.752 42.9662L101.601 42.1114C101.263 40.2065 99.823 39.2121 98.1066 39.5163C96.4104 39.817 95.3831 41.2279 95.7244 43.153L95.9153 44.23C96.2542 46.1416 97.5918 47.1472 99.4967 46.8095ZM96.9312 42.9113L96.9109 42.7969C96.7021 41.619 97.2582 40.722 98.2947 40.5382C99.3313 40.3545 100.155 41.0069 100.364 42.1848L100.384 42.2992L96.9312 42.9113ZM108.321 45.1272L109.761 44.8719L106.705 41.6924L108.486 37.7944L107.099 38.0402L105.901 40.9533L105.847 40.9629L103.768 38.6309L102.314 38.8886L105.331 42.0471L103.596 45.9648L104.955 45.7238L106.153 42.804L106.2 42.7956L108.321 45.1272ZM114.815 44.0871C116.505 43.7876 117.355 42.4358 117.022 40.5578L116.806 39.3395C116.476 37.475 115.225 36.4888 113.562 36.7835C112.546 36.9637 111.815 37.5792 111.66 38.3911L111.6 38.4019L111.399 37.2711L110.228 37.4787L111.901 46.9155L113.119 46.6996L112.517 43.3004L112.577 43.2897C113.04 43.9783 113.839 44.2601 114.815 44.0871ZM114.381 43.0879C113.291 43.2812 112.399 42.634 112.197 41.4965L111.979 40.2647C111.752 38.9858 112.307 38.0821 113.424 37.8841C114.575 37.68 115.372 38.3787 115.624 39.799L115.758 40.5529C116.008 41.9664 115.499 42.8898 114.381 43.0879ZM122.315 42.7646C124.105 42.4472 124.763 41.185 124.737 40.4121L123.485 40.634C123.442 41.093 122.953 41.5892 122.125 41.7359C120.948 41.9447 120.163 41.2021 119.969 40.1049L119.906 39.7482L124.57 38.9213L124.419 38.0664C124.081 36.1616 122.641 35.1671 120.925 35.4714C119.229 35.7721 118.201 37.183 118.542 39.1081L118.733 40.1851C119.072 42.0967 120.41 43.1022 122.315 42.7646ZM119.749 38.8664L119.729 38.752C119.52 37.574 120.076 36.6771 121.113 36.4933C122.149 36.3096 122.973 36.9619 123.182 38.1399L123.202 38.2543L119.749 38.8664ZM127.269 41.7684L128.494 41.5512L127.718 37.1761C127.548 36.2135 128.034 35.3566 129.28 35.1359C129.495 35.0977 129.74 35.0682 129.859 35.0748L129.662 33.9642C129.517 33.9691 129.367 33.9819 129.212 34.0093C127.96 34.2313 127.578 35.0556 127.486 35.5511L127.425 35.5618L127.232 34.4714L126.013 34.6874L127.269 41.7684ZM132.136 33.6229L131.045 33.8162L131.22 34.8057L132.304 34.6136L133.028 38.6993C133.277 40.0994 133.755 40.6811 135.437 40.3828C135.707 40.3351 136.199 40.2131 136.295 40.1683L136.122 39.1923C136.01 39.2261 135.744 39.294 135.569 39.325C134.708 39.4777 134.387 39.3124 134.239 38.4778L133.516 34.3988L135.118 34.1148L134.942 33.1254L133.34 33.4094L133.025 31.6324L131.821 31.846L132.136 33.6229ZM136.955 34.8444C137.202 36.2377 138.326 36.3509 139.693 36.3863C140.71 36.4073 141.524 36.4158 141.664 37.2033C141.772 37.8158 141.404 38.4018 140.287 38.5998C139.297 38.7752 138.789 38.4557 138.584 37.8464L137.393 38.0576C137.617 39.323 138.826 39.8377 140.401 39.5585C142.097 39.2578 143.086 38.2563 142.837 36.8496C142.592 35.4697 141.429 35.294 140.063 35.3002C139.235 35.2941 138.261 35.3558 138.111 34.5145C137.99 33.8279 138.514 33.3392 139.342 33.1925C140.291 33.0242 140.843 33.4748 140.97 33.959L142.101 33.7586C141.89 32.5672 140.741 31.9587 139.213 32.2295C137.833 32.4741 136.689 33.3434 136.955 34.8444Z" fill="white"/>
<path d="M62.7088 172.105L61.6942 166.382L61.7462 166.373L64.8131 171.018L65.6785 170.865L66.9559 165.449L67.0136 165.439L68.0282 171.162L68.9917 170.992L67.5957 163.116L66.5572 163.3L65.0653 169.789L65.0307 169.795L61.3935 164.216L60.3493 164.401L61.7453 172.276L62.7088 172.105Z" fill="white" fill-opacity="0.5"/>
<path d="M81.5607 168.763L80.3314 161.828L82.7026 161.408L82.5359 160.468L76.7261 161.498L76.8928 162.438L79.2698 162.017L80.4991 168.952L81.5607 168.763Z" fill="white" fill-opacity="0.5"/>
<path d="M112.719 163.24L111.489 156.305L113.861 155.885L113.694 154.945L107.884 155.974L108.051 156.915L110.428 156.493L111.657 163.428L112.719 163.24Z" fill="white" fill-opacity="0.5"/>
<path d="M95.9506 166.212L96.4968 159.76L96.543 159.752L99.2738 165.623L100.226 165.455L100.987 157.197L99.7701 157.413L99.449 163.926L99.3913 163.936L96.7354 157.951L95.6969 158.135L95.2661 164.668L95.2084 164.678L92.6679 158.672L91.4448 158.888L95.0044 166.38L95.9506 166.212Z" fill="white" fill-opacity="0.5"/>
<path d="M127.56 160.609L126.962 157.234L130.285 156.645L130.12 155.716L126.797 156.305L126.331 153.674L129.96 153.031L129.793 152.091L125.103 152.922L126.499 160.797L127.56 160.609Z" fill="white" fill-opacity="0.5"/>
<path d="M140.327 156.287C140.662 157.537 141.892 158.235 143.56 157.94C145.377 157.618 146.348 156.481 146.094 155.051C145.892 153.908 145.102 153.382 143.659 153.263L142.252 153.149C141.499 153.098 141.044 152.78 140.946 152.226C140.809 151.453 141.377 150.799 142.37 150.623C143.287 150.46 143.989 150.794 144.257 151.467L145.324 151.277C144.989 150.093 143.781 149.421 142.223 149.697C140.619 149.981 139.639 151.131 139.875 152.464C140.061 153.514 140.871 154.12 142.107 154.21L143.538 154.325C144.46 154.394 144.924 154.693 145.035 155.322C145.183 156.152 144.602 156.803 143.506 156.997C142.479 157.179 141.683 156.82 141.4 156.097L140.327 156.287Z" fill="white" fill-opacity="0.5"/>
<path d="M155.906 153.526C156.241 154.775 157.471 155.474 159.139 155.178C160.956 154.856 161.927 153.72 161.673 152.289C161.471 151.147 160.681 150.62 159.238 150.501L157.831 150.387C157.078 150.336 156.623 150.018 156.525 149.465C156.388 148.691 156.956 148.037 157.949 147.861C158.866 147.699 159.568 148.032 159.836 148.705L160.903 148.516C160.568 147.331 159.36 146.659 157.802 146.935C156.198 147.219 155.218 148.369 155.454 149.702C155.64 150.752 156.45 151.358 157.686 151.449L159.117 151.564C160.039 151.632 160.503 151.931 160.614 152.56C160.762 153.391 160.181 154.041 159.085 154.236C158.058 154.418 157.262 154.059 156.979 153.335L155.906 153.526Z" fill="white" fill-opacity="0.5"/>
<rect x="89.859" y="141.744" width="54.9607" height="5.82916" rx="2.91458" transform="rotate(-100.052 89.859 141.744)" fill="url(#paint1_linear_23_54)"/>
<rect x="105.438" y="138.982" width="23.3167" height="5.82916" rx="2.91458" transform="rotate(-100.052 105.438 138.982)" fill="url(#paint2_linear_23_54)"/>
<rect x="74.2799" y="144.505" width="34.975" height="5.82916" rx="2.91458" transform="rotate(-100.052 74.2799 144.505)" fill="url(#paint3_linear_23_54)"/>
<rect x="58.7008" y="147.267" width="23.3167" height="5.82916" rx="2.91458" transform="rotate(-100.052 58.7008 147.267)" fill="url(#paint4_linear_23_54)"/>
<rect x="121.017" y="136.22" width="42.4696" height="5.82916" rx="2.91458" transform="rotate(-100.052 121.017 136.22)" fill="url(#paint5_linear_23_54)"/>
<rect x="136.596" y="133.459" width="59.9571" height="5.82916" rx="2.91458" transform="rotate(-100.052 136.596 133.459)" fill="url(#paint6_linear_23_54)"/>
<rect x="152.175" y="130.697" width="45.8006" height="5.82916" rx="2.91458" transform="rotate(-100.052 152.175 130.697)" fill="url(#paint7_linear_23_54)"/>
<defs>
<linearGradient id="paint0_linear_23_54" x1="74.053" y1="-74.694" x2="83.9629" y2="278.237" gradientUnits="userSpaceOnUse">
<stop stop-color="#434D9C"/>
<stop offset="0.870137" stop-color="#434D9C" stop-opacity="0"/>
</linearGradient>
<linearGradient id="paint1_linear_23_54" x1="144.82" y1="141.744" x2="51.9694" y2="141.744" gradientUnits="userSpaceOnUse">
<stop offset="0.432963" stop-color="#F08F6B"/>
<stop offset="1" stop-color="#6C85F7" stop-opacity="0"/>
<stop offset="1" stop-color="#F08F6B"/>
</linearGradient>
<linearGradient id="paint2_linear_23_54" x1="117.096" y1="138.982" x2="102.523" y2="138.982" gradientUnits="userSpaceOnUse">
<stop stop-color="#6C85F7"/>
<stop offset="1" stop-color="#6C85F7" stop-opacity="0"/>
</linearGradient>
<linearGradient id="paint3_linear_23_54" x1="91.7674" y1="144.505" x2="69.908" y2="144.505" gradientUnits="userSpaceOnUse">
<stop stop-color="#6C85F7"/>
<stop offset="1" stop-color="#6C85F7" stop-opacity="0"/>
</linearGradient>
<linearGradient id="paint4_linear_23_54" x1="70.3591" y1="147.267" x2="55.7862" y2="147.267" gradientUnits="userSpaceOnUse">
<stop stop-color="#6C85F7"/>
<stop offset="1" stop-color="#6C85F7" stop-opacity="0"/>
</linearGradient>
<linearGradient id="paint5_linear_23_54" x1="168.9" y1="136.22" x2="117.27" y2="136.22" gradientUnits="userSpaceOnUse">
<stop stop-color="#6C85F7"/>
<stop offset="1" stop-color="#6C85F7" stop-opacity="0"/>
</linearGradient>
<linearGradient id="paint6_linear_23_54" x1="198.635" y1="133.459" x2="133.265" y2="133.459" gradientUnits="userSpaceOnUse">
<stop stop-color="#6C85F7"/>
<stop offset="1" stop-color="#6C85F7" stop-opacity="0"/>
</linearGradient>
<linearGradient id="paint7_linear_23_54" x1="203.389" y1="130.697" x2="140.933" y2="130.697" gradientUnits="userSpaceOnUse">
<stop stop-color="#6C85F7"/>
<stop offset="1" stop-color="#6C85F7" stop-opacity="0"/>
</linearGradient>
</defs>
</svg>
