<svg width="211" height="237" viewBox="0 0 211 237" fill="none" xmlns="http://www.w3.org/2000/svg">
<rect y="22.4263" width="185.335" height="215.933" rx="18" transform="rotate(-6.95007 0 22.4263)" fill="url(#paint0_linear_23_38)"/>
<path d="M42.1655 37.8799L43.2946 47.1424L46.3074 46.7751C49.0081 46.4459 50.1896 44.6698 49.8207 41.6434C49.4518 38.6169 47.879 37.1834 45.1783 37.5127L42.1655 37.8799ZM43.5472 38.8202L45.2233 38.6159C47.1504 38.381 48.2376 39.4467 48.5254 41.8081C48.8133 44.1696 48.0191 45.4509 46.0852 45.6866L44.4091 45.8909L43.5472 38.8202ZM57.3937 38.1791L56.0908 38.3379L54.9214 44.5062L54.8671 44.5128L52.2569 38.8053L50.893 38.9715L54.394 45.8858L54.3516 46.1595C54.2329 46.9935 53.8579 47.3629 53.0572 47.4605C52.9147 47.4779 52.6407 47.4906 52.5305 47.4903L52.6513 48.481C52.8327 48.5002 53.1473 48.4825 53.3644 48.456C54.6062 48.3047 55.2544 47.6334 55.6391 46.0439L55.7412 45.6389C55.7396 45.6254 57.3238 38.5664 57.3937 38.1791ZM59.9942 45.1067L61.2224 44.957L60.7377 40.9806C60.5871 39.7456 61.0796 38.7008 62.3349 38.5478C63.3053 38.4295 63.9524 38.9359 64.0889 40.0556L64.6356 44.5409L65.8638 44.3912L65.2699 39.5191C65.0747 37.9176 63.9957 37.2572 62.5571 37.4326C61.0642 37.6146 60.6723 38.5232 60.5645 39.1079L60.4966 39.1162L60.3387 37.8201L59.124 37.9682L59.9942 45.1067ZM70.1868 43.9813C71.2386 43.8531 71.8237 43.2859 72.0995 42.667L72.1537 42.6604L72.2695 43.6104L73.4503 43.4664L72.8563 38.5943C72.6429 36.8436 71.3514 36.3606 69.8789 36.5401C68.2842 36.7345 67.4169 37.5288 67.4556 38.7499L68.6431 38.6052C68.7252 38.0924 69.0622 37.6933 69.9647 37.5832C70.8808 37.4716 71.5089 37.822 71.6205 38.7381L71.7065 39.4438L69.8405 39.6712C68.1983 39.8714 67.4332 40.8255 67.5854 42.0741C67.7467 43.3973 68.8025 44.1501 70.1868 43.9813ZM70.4004 42.9085C69.6607 42.9987 68.9367 42.7082 68.8358 41.8803C68.758 41.2425 69.0928 40.7127 70.0564 40.5953L71.8207 40.3802L71.9175 41.1741C72.0242 42.0495 71.364 42.7911 70.4004 42.9085ZM75.832 43.1761L77.0603 43.0264L76.5069 38.4867C76.3878 37.5096 76.9505 36.7592 77.8462 36.65C78.7827 36.5359 79.4364 37.0966 79.5497 38.0263L80.1138 42.6541L81.3285 42.5061L80.7767 37.98C80.6576 37.0029 81.2594 36.234 82.1484 36.1256C83.1119 36.0081 83.7004 36.5424 83.8121 37.4585L84.382 42.1338L85.6102 41.9841L84.9981 36.9627C84.8236 35.5309 83.8371 34.8386 82.3781 35.0164C81.1703 35.1636 80.5703 35.891 80.3637 36.6255L80.3094 36.6321C79.992 35.8926 79.2431 35.3986 78.1642 35.5301C76.8478 35.6906 76.4841 36.4924 76.3833 37.0212L76.3155 37.0295L76.1765 35.8895L74.9619 36.0375L75.832 43.1761ZM86.7656 32.3674C86.8252 32.856 87.2414 33.1633 87.73 33.1038C88.2457 33.0409 88.5759 32.6426 88.5163 32.154C88.4559 31.6586 88.0397 31.3513 87.524 31.4141C87.0354 31.4737 86.7052 31.872 86.7656 32.3674ZM88.1617 41.6731L89.3899 41.5234L88.5197 34.3848L87.2915 34.5345L88.1617 41.6731ZM91.2703 38.2503C91.5036 40.1639 92.79 41.226 94.6289 41.0018C96.5154 40.7719 97.2498 39.6218 97.1623 38.5651L95.968 38.7106C95.9052 39.2692 95.5704 39.799 94.5186 39.9272C93.4193 40.0612 92.6516 39.3559 92.5002 38.1142L92.3612 36.9742C92.209 35.7256 92.7145 34.8445 93.8817 34.7022C94.9945 34.5665 95.4106 35.2114 95.5365 35.623L96.7376 35.4766C96.5721 34.4018 95.5153 33.415 93.7306 33.6325C91.8985 33.8559 90.8998 35.2103 91.1281 37.0832L91.2703 38.2503ZM105.858 39.626C107.562 39.4184 108.484 38.1146 108.253 36.2214L108.103 34.9932C107.874 33.1136 106.679 32.0611 105.003 32.2654C103.978 32.3903 103.215 32.9654 103.016 33.7677L102.955 33.7752L102.816 32.6352L101.636 32.7791L102.795 42.2927L104.024 42.1429L103.606 38.7162L103.667 38.7087C104.091 39.4214 104.875 39.746 105.858 39.626ZM105.479 38.6049C104.38 38.7389 103.524 38.0444 103.384 36.8976L103.233 35.6558C103.076 34.3665 103.679 33.4942 104.805 33.3569C105.965 33.2154 106.724 33.9563 106.898 35.388L106.991 36.148C107.165 37.573 106.606 38.4676 105.479 38.6049ZM110.738 38.9211L111.966 38.7714L110.777 29.0203L109.549 29.17L110.738 38.9211ZM116.37 38.3515C117.422 38.2233 118.007 37.6562 118.283 37.0372L118.337 37.0306L118.453 37.9806L119.634 37.8366L119.04 32.9645C118.826 31.2138 117.535 30.7308 116.062 30.9103C114.468 31.1047 113.6 31.8991 113.639 33.1201L114.827 32.9754C114.909 32.4627 115.246 32.0635 116.148 31.9535C117.064 31.8418 117.692 32.1922 117.804 33.1083L117.89 33.814L116.024 34.0415C114.382 34.2416 113.617 35.1957 113.769 36.4443C113.93 37.7675 114.986 38.5203 116.37 38.3515ZM116.584 37.2787C115.844 37.3689 115.12 37.0784 115.019 36.2506C114.942 35.6127 115.276 35.0829 116.24 34.9655L118.004 34.7504L118.101 35.5443C118.208 36.4197 117.547 37.1613 116.584 37.2787ZM121.535 30.381L120.435 30.515L120.557 31.5125L121.649 31.3793L122.152 35.4982C122.324 36.9096 122.769 37.5164 124.466 37.3096C124.737 37.2765 125.235 37.1814 125.334 37.1418L125.214 36.1579C125.1 36.1855 124.831 36.239 124.655 36.2605C123.786 36.3664 123.475 36.184 123.372 35.3425L122.871 31.2304L124.486 31.0335L124.364 30.036L122.749 30.2329L122.531 28.4415L121.316 28.5895L121.535 30.381ZM127.851 36.8349L129.079 36.6852L128.333 30.5645L129.976 30.3643L129.854 29.3668L128.198 29.5687L128.123 28.9512C128.02 28.103 128.349 27.8148 129.191 27.7123C129.367 27.6907 129.722 27.6613 129.832 27.6616L129.711 26.6709C129.567 26.6747 129.211 26.6906 128.892 26.7295C127.297 26.9239 126.73 27.6335 126.897 29.0042L126.984 29.7167L125.782 29.8631L125.904 30.8606L127.105 30.7142L127.851 36.8349ZM134.268 28.691C132.484 28.9085 131.331 30.2956 131.566 32.2227L131.694 33.2745C131.942 35.3102 133.362 36.2803 135.167 36.0602C136.938 35.8444 138.108 34.5379 137.862 32.5226L137.733 31.464C137.491 29.4758 136.04 28.4751 134.268 28.691ZM134.403 29.7351C135.549 29.5953 136.352 30.4203 136.511 31.7231L136.616 32.5849C136.778 33.9081 136.228 34.8773 135.047 35.0212C133.853 35.1668 133.073 34.3598 132.911 33.0365L132.806 32.1748C132.647 30.8719 133.256 29.8749 134.403 29.7351ZM140.405 35.3047L141.64 35.1541L141.102 30.7434C140.984 29.773 141.516 28.9437 142.772 28.7907C142.989 28.7642 143.235 28.748 143.353 28.7611L143.217 27.6415C143.072 27.6385 142.921 27.6431 142.765 27.6621C141.503 27.816 141.077 28.6185 140.958 29.1082L140.897 29.1157L140.763 28.0164L139.535 28.1661L140.405 35.3047ZM145.738 34.6545L146.967 34.5048L146.413 29.9651C146.294 28.988 146.857 28.2376 147.753 28.1284C148.689 28.0143 149.343 28.575 149.456 29.5047L150.02 34.1325L151.235 33.9845L150.683 29.4584C150.564 28.4813 151.166 27.7124 152.055 27.604C153.018 27.4865 153.607 28.0208 153.718 28.9369L154.288 33.6122L155.517 33.4625L154.904 28.4411C154.73 27.0093 153.743 26.317 152.284 26.4948C151.077 26.642 150.477 27.3694 150.27 28.1039L150.216 28.1105C149.898 27.371 149.149 26.877 148.071 27.0085C146.754 27.169 146.39 27.9708 146.29 28.4996L146.222 28.5079L146.083 27.3679L144.868 27.5159L145.738 34.6545Z" fill="white"/>
<path opacity="0.5" d="M160.175 135.868C160.174 135.863 160.17 135.834 160.17 135.828C160.078 135.072 160.532 134.343 161.457 134.231C162.271 134.131 162.945 134.575 163.045 135.395C163.133 136.122 162.73 136.732 162.354 137.279L159.779 141.046L159.861 141.721L164.991 141.096L164.878 140.165L161.266 140.605L161.258 140.541L163.074 137.864C163.715 136.924 164.239 136.182 164.117 135.187C163.966 133.942 162.869 133.132 161.369 133.315C159.717 133.516 158.982 134.751 159.129 135.955L159.134 135.995L160.175 135.868ZM166.336 139.055C166.553 140.209 167.704 140.93 169.17 140.751C170.845 140.547 171.849 139.292 171.649 137.651C171.453 136.046 170.185 135.233 168.801 135.401C167.922 135.508 167.422 136 167.29 136.276L167.232 136.283L167.137 133.715L170.714 133.279L170.601 132.354L166.117 132.901L166.318 137.504L167.226 137.394C167.393 136.978 167.858 136.431 168.678 136.331C169.574 136.222 170.448 136.765 170.576 137.812C170.721 138.998 169.937 139.737 169.123 139.836C168.396 139.925 167.613 139.702 167.36 138.93L166.336 139.055ZM176.969 135.344C177.981 135.221 178.588 134.344 178.45 133.21C178.311 132.07 177.512 131.376 176.5 131.5C175.488 131.623 174.869 132.495 175.007 133.629C175.145 134.764 175.957 135.467 176.969 135.344ZM177.56 139.563L179.711 135.512L182.228 130.937L181.123 131.072L178.917 135.201L176.443 139.699L177.56 139.563ZM176.875 134.576C176.404 134.634 176.041 134.218 175.955 133.514C175.868 132.804 176.116 132.314 176.593 132.256C177.069 132.198 177.42 132.603 177.508 133.325C177.593 134.023 177.341 134.52 176.875 134.576ZM182.139 139.117C183.151 138.994 183.765 138.122 183.626 136.982C183.488 135.848 182.683 135.149 181.671 135.273C180.664 135.395 180.051 136.273 180.189 137.401C180.328 138.541 181.133 139.24 182.139 139.117ZM182.046 138.355C181.581 138.412 181.218 137.996 181.131 137.286C181.045 136.583 181.292 136.092 181.764 136.035C182.241 135.977 182.591 136.382 182.678 137.098C182.764 137.802 182.512 138.299 182.046 138.355Z" fill="white"/>
<path opacity="0.5" d="M163.983 167.109C163.982 167.103 163.979 167.074 163.978 167.069C163.886 166.312 164.34 165.584 165.265 165.471C166.079 165.372 166.753 165.815 166.853 166.635C166.942 167.363 166.538 167.972 166.162 168.52L163.587 172.287L163.669 172.962L168.799 172.336L168.686 171.406L165.074 171.846L165.066 171.782L166.882 169.105C167.523 168.165 168.047 167.423 167.926 166.428C167.774 165.183 166.677 164.372 165.177 164.555C163.525 164.757 162.79 165.991 162.937 167.195L162.942 167.236L163.983 167.109ZM170.144 170.295C170.362 171.449 171.512 172.171 172.978 171.992C174.653 171.788 175.657 170.532 175.457 168.892C175.261 167.287 173.993 166.473 172.609 166.642C171.731 166.749 171.23 167.241 171.098 167.517L171.04 167.524L170.945 164.956L174.522 164.52L174.41 163.595L169.925 164.142L170.126 168.745L171.034 168.634C171.201 168.219 171.666 167.672 172.486 167.572C173.382 167.463 174.257 168.005 174.384 169.052C174.529 170.239 173.745 170.978 172.931 171.077C172.204 171.166 171.421 170.942 171.168 170.171L170.144 170.295ZM180.777 166.585C181.789 166.462 182.397 165.585 182.258 164.451C182.119 163.311 181.321 162.617 180.309 162.74C179.297 162.864 178.677 163.736 178.815 164.87C178.953 166.005 179.765 166.708 180.777 166.585ZM181.368 170.804L183.519 166.752L186.037 162.178L184.931 162.313L182.725 166.442L180.252 170.94L181.368 170.804ZM180.684 165.817C180.213 165.875 179.849 165.459 179.763 164.755C179.677 164.045 179.924 163.555 180.401 163.496C180.878 163.438 181.228 163.844 181.316 164.565C181.401 165.263 181.149 165.76 180.684 165.817ZM185.948 170.358C186.96 170.235 187.574 169.363 187.435 168.223C187.296 167.089 186.491 166.39 185.479 166.514C184.473 166.636 183.86 167.514 183.997 168.642C184.136 169.782 184.941 170.481 185.948 170.358ZM185.855 169.596C185.389 169.653 185.026 169.237 184.939 168.527C184.854 167.823 185.101 167.333 185.572 167.275C186.049 167.217 186.399 167.623 186.486 168.339C186.572 169.042 186.32 169.539 185.855 169.596Z" fill="white"/>
<path opacity="0.5" d="M161.551 155.49C161.769 156.644 162.919 157.366 164.385 157.187C166.06 156.983 167.064 155.727 166.864 154.087C166.668 152.482 165.4 151.668 164.016 151.837C163.138 151.944 162.637 152.436 162.505 152.712L162.447 152.719L162.353 150.151L165.93 149.715L165.817 148.79L161.332 149.337L161.534 153.94L162.441 153.83C162.609 153.414 163.073 152.867 163.893 152.767C164.789 152.658 165.664 153.201 165.791 154.247C165.936 155.434 165.153 156.173 164.338 156.272C163.611 156.361 162.828 156.137 162.575 155.366L161.551 155.49ZM168.187 152.686C168.48 155.094 169.713 156.538 171.51 156.319C173.313 156.099 174.156 154.397 173.863 151.994L173.827 151.698C173.534 149.29 172.311 147.833 170.514 148.052C168.705 148.273 167.858 149.988 168.15 152.39L168.187 152.686ZM169.215 152.266C168.983 150.358 169.527 149.111 170.615 148.979C171.709 148.845 172.531 149.926 172.763 151.833L172.797 152.113C173.03 154.02 172.491 155.261 171.397 155.394C170.309 155.527 169.482 154.453 169.25 152.545L169.215 152.266ZM179.443 150.895C180.455 150.772 181.063 149.895 180.924 148.761C180.785 147.621 179.987 146.927 178.974 147.051C177.962 147.174 177.343 148.046 177.481 149.181C177.619 150.315 178.431 151.019 179.443 150.895ZM180.034 155.114L182.185 151.063L184.702 146.488L183.597 146.623L181.391 150.752L178.917 155.251L180.034 155.114ZM179.35 150.127C178.878 150.185 178.515 149.769 178.429 149.065C178.343 148.355 178.59 147.865 179.067 147.807C179.544 147.749 179.894 148.154 179.982 148.876C180.067 149.574 179.815 150.071 179.35 150.127ZM184.613 154.668C185.626 154.545 186.239 153.673 186.1 152.533C185.962 151.399 185.157 150.7 184.145 150.824C183.139 150.946 182.525 151.824 182.663 152.952C182.802 154.092 183.607 154.791 184.613 154.668ZM184.521 153.906C184.055 153.963 183.692 153.547 183.605 152.837C183.519 152.134 183.767 151.643 184.238 151.586C184.715 151.528 185.065 151.933 185.152 152.649C185.238 153.353 184.986 153.85 184.521 153.906Z" fill="white"/>
<rect x="62.3976" y="194.74" width="103.158" height="26.3809" rx="13.1905" transform="rotate(-6.95007 62.3976 194.74)" fill="url(#paint1_linear_23_38)"/>
<rect x="69.2265" y="149.614" width="36.7173" height="5.24533" rx="2.62266" transform="rotate(-6.95007 69.2265 149.614)" fill="#2A3A6A"/>
<rect x="55.3416" y="151.307" width="5.24533" height="5.24533" rx="2.62266" transform="rotate(-6.95007 55.3416 151.307)" fill="#F18563"/>
<rect x="70.7449" y="162.07" width="66.4408" height="4.88535" rx="2.44268" transform="rotate(-6.95007 70.7449 162.07)" fill="#2A3A6A"/>
<rect x="57.0343" y="165.191" width="5.24533" height="5.24533" rx="2.62266" transform="rotate(-6.95007 57.0343 165.191)" fill="#6680ED"/>
<rect x="72.4" y="175.648" width="36.7173" height="5.24533" rx="2.62266" transform="rotate(-6.95007 72.4 175.648)" fill="#2A3A6A"/>
<rect x="58.7267" y="179.076" width="5.24533" height="5.24533" rx="2.62266" transform="rotate(-6.95007 58.7267 179.076)" fill="#5E1E80"/>
<path d="M128.726 88.6389C127.856 81.5042 124.188 75.0071 118.528 70.577C112.868 66.147 105.68 64.1468 98.5451 65.0165" stroke="url(#paint2_linear_23_38)" stroke-width="18"/>
<path d="M98.5452 65.0164C95.0125 65.4471 91.5991 66.5693 88.5 68.3192C85.401 70.069 82.6769 72.412 80.4833 75.2146C78.2898 78.0172 76.6697 81.2243 75.7157 84.653C74.7616 88.0817 74.4922 91.6647 74.9228 95.1975" stroke="url(#paint3_linear_23_38)" stroke-width="18"/>
<path d="M128.726 88.6389C129.157 92.1716 128.887 95.7547 127.933 99.1833C126.979 102.612 125.359 105.819 123.166 108.622C120.972 111.424 118.248 113.767 115.149 115.517C112.05 117.267 108.637 118.389 105.104 118.82C101.571 119.251 97.988 118.981 94.5593 118.027C91.1307 117.073 87.9235 115.453 85.1209 113.259C82.3184 111.066 79.9753 108.342 78.2255 105.243C76.4757 102.144 75.3534 98.7303 74.9228 95.1975" stroke="url(#paint4_linear_23_38)" stroke-width="18"/>
<defs>
<linearGradient id="paint0_linear_23_38" x1="103.721" y1="-38.6445" x2="54.6229" y2="245.886" gradientUnits="userSpaceOnUse">
<stop stop-color="#434D9C"/>
<stop offset="1" stop-color="#434D9C" stop-opacity="0"/>
</linearGradient>
<linearGradient id="paint1_linear_23_38" x1="58.4636" y1="208.419" x2="176.483" y2="208.419" gradientUnits="userSpaceOnUse">
<stop stop-color="#6C85F7"/>
<stop offset="1" stop-color="#6C85F7" stop-opacity="0"/>
</linearGradient>
<linearGradient id="paint2_linear_23_38" x1="89.1387" y1="56.4127" x2="128.726" y2="88.6389" gradientUnits="userSpaceOnUse">
<stop stop-color="#721B81"/>
<stop offset="1" stop-color="#1B2581" stop-opacity="0.94"/>
</linearGradient>
<linearGradient id="paint3_linear_23_38" x1="85.0944" y1="66.6561" x2="72.1976" y2="100.266" gradientUnits="userSpaceOnUse">
<stop stop-color="#F08F6B"/>
<stop offset="1" stop-color="#F36B4D"/>
</linearGradient>
<linearGradient id="paint4_linear_23_38" x1="115.033" y1="113.431" x2="71.7421" y2="103.386" gradientUnits="userSpaceOnUse">
<stop stop-color="#667FED"/>
<stop offset="1" stop-color="#66BCED" stop-opacity="0.74"/>
</linearGradient>
</defs>
</svg>
