<svg width="213" height="218" viewBox="0 0 213 218" fill="none" xmlns="http://www.w3.org/2000/svg">
<rect y="50.2167" width="167.884" height="175.011" rx="18" transform="rotate(-17.4045 0 50.2167)" fill="url(#paint0_linear_23_29)"/>
<path d="M24.6048 60.4425L21.3303 61.469L24.1213 70.3729L25.3216 69.9966L24.2788 66.6699L26.3465 66.0217C28.0816 65.4778 28.8458 63.9846 28.3305 62.3408C27.8152 60.697 26.3334 59.9007 24.6048 60.4425ZM27.0977 62.7273C27.4432 63.8297 27.0109 64.6673 25.915 65.0108L23.9516 65.6262L22.8597 62.143L24.8231 61.5275C25.919 61.184 26.7521 61.6249 27.0977 62.7273ZM34.4885 67.2449C36.2236 66.701 36.7146 65.365 36.59 64.6017L35.3767 64.982C35.3922 65.4428 34.9714 65.9974 34.1691 66.2489C33.0276 66.6067 32.1548 65.9705 31.8215 64.9073L31.7131 64.5616L36.2335 63.1446L35.9738 62.3162C35.3952 60.4702 33.8399 59.6682 32.1766 60.1896C30.5328 60.7048 29.6945 62.2356 30.2793 64.1012L30.6064 65.1449C31.1871 66.9974 32.6425 67.8235 34.4885 67.2449ZM31.4452 63.7071L31.4105 63.5962C31.0526 62.4547 31.4894 61.4939 32.4939 61.179C33.4984 60.8641 34.3989 61.4057 34.7568 62.5472L34.7915 62.6581L31.4452 63.7071ZM39.2742 65.6229L40.4614 65.2508L39.1323 61.0109C38.8399 60.0781 39.213 59.1659 40.4198 58.7876C40.6285 58.7222 40.8674 58.6616 40.9865 58.653L40.6491 57.5767C40.506 57.6001 40.3584 57.632 40.2084 57.679C38.9951 58.0593 38.7223 58.9257 38.6937 59.429L38.635 59.4474L38.3038 58.3907L37.1231 58.7608L39.2742 65.6229ZM42.5155 59.234C42.9387 60.5842 44.0679 60.5526 45.4282 60.4128C46.4398 60.3034 47.248 60.2077 47.4872 60.9709C47.6733 61.5645 47.3831 62.1927 46.3003 62.5322C45.3414 62.8327 44.7968 62.5808 44.5153 62.0028L43.3607 62.3647C43.7451 63.591 45.01 63.9467 46.5364 63.4683C48.1802 62.953 49.0327 61.8332 48.6054 60.4699C48.1862 59.1327 47.0105 59.1073 45.656 59.2883C44.8347 59.3881 43.8758 59.5741 43.6202 58.7587C43.4116 58.0934 43.8691 57.5416 44.6714 57.2901C45.5911 57.0018 46.1962 57.3781 46.3846 57.842L47.4805 57.4985C47.1186 56.3439 45.9009 55.8874 44.4202 56.3516C43.083 56.7708 42.0595 57.7793 42.5155 59.234ZM51.6215 54.0942C49.906 54.632 49.0237 56.2052 49.6044 58.0577L49.9213 59.0688C50.5348 61.0257 52.107 61.7221 53.8421 61.1782C55.5446 60.6445 56.458 59.1475 55.8507 57.2101L55.5317 56.1926C54.9326 54.2813 53.324 53.5605 51.6215 54.0942ZM51.943 55.0967C53.0453 54.7511 53.9847 55.4167 54.3773 56.6691L54.6369 57.4975C55.0357 58.7695 54.6708 59.8223 53.5358 60.1781C52.3878 60.538 51.4741 59.8859 51.0754 58.6139L50.8157 57.7855C50.4231 56.5331 50.8406 55.4423 51.943 55.0967ZM58.7518 59.5174L59.9324 59.1473L58.7342 55.3248C58.3621 54.1376 58.6567 53.0208 59.8635 52.6425C60.7963 52.3501 61.5245 52.7308 61.8619 53.8071L63.2135 58.1188L64.3941 57.7487L62.926 53.0652C62.4435 51.5258 61.2625 51.0721 59.8796 51.5056C58.4446 51.9554 58.224 52.9201 58.2241 53.5146L58.1589 53.5351L57.7683 52.2892L56.6007 52.6552L58.7518 59.5174ZM68.571 56.5611C69.582 56.2442 70.0545 55.5803 70.2134 54.9216L70.2656 54.9052L70.5518 55.8184L71.6868 55.4626L70.2187 50.7792C69.6912 49.0962 68.3334 48.8556 66.9179 49.2993C65.385 49.7798 64.6763 50.7184 64.9359 51.9122L66.0774 51.5544C66.0651 51.0352 66.3241 50.5815 67.1916 50.3096C68.0722 50.0336 68.7534 50.2642 69.0295 51.1448L69.2421 51.8232L67.4483 52.3855C65.8698 52.8803 65.2904 53.9574 65.6666 55.1576C66.0654 56.4296 67.2403 56.9783 68.571 56.5611ZM68.5863 55.4674C67.8753 55.6903 67.1106 55.536 66.8611 54.7402C66.6689 54.127 66.9021 53.5453 67.8283 53.255L69.5243 52.7233L69.7635 53.4865C70.0273 54.328 69.5126 55.1771 68.5863 55.4674ZM74.0155 54.7327L75.1962 54.3626L72.2579 44.9891L71.0772 45.3592L74.0155 54.7327ZM74.6657 44.6713C74.8129 45.141 75.278 45.3677 75.7476 45.2205C76.2434 45.0651 76.4958 44.6134 76.3486 44.1438C76.1993 43.6676 75.7342 43.4409 75.2385 43.5963C74.7688 43.7435 74.5164 44.1951 74.6657 44.6713ZM77.7271 53.5692L78.9077 53.1991L76.7567 46.337L75.576 46.7071L77.7271 53.5692ZM81.0277 52.5346L86.1613 50.9254L85.8443 49.9143L82.198 51.0573L82.1796 50.9986L84.2226 44.8778L83.9711 44.0755L78.8636 45.6765L79.1805 46.6876L82.8204 45.5466L82.8408 45.6118L80.7823 51.7518L81.0277 52.5346ZM90.7165 49.6193C92.4516 49.0754 92.9426 47.7394 92.818 46.9761L91.6047 47.3564C91.6202 47.8172 91.1994 48.3718 90.3971 48.6233C89.2556 48.9811 88.3827 48.3449 88.0494 47.2817L87.9411 46.936L92.4615 45.519L92.2018 44.6905C91.6231 42.8445 90.0679 42.0425 88.4046 42.564C86.7608 43.0792 85.9225 44.61 86.5073 46.4756L86.8344 47.5193C87.4151 49.3718 88.8705 50.1979 90.7165 49.6193ZM87.6732 46.0814L87.6384 45.9706C87.2806 44.829 87.7173 43.8683 88.7219 43.5534C89.7264 43.2385 90.6269 43.7801 90.9847 44.9216L91.0195 45.0325L87.6732 46.0814ZM95.5427 40.3335C93.9446 40.8345 93.2331 42.2897 93.781 44.0379L94.1982 45.3686C94.7462 47.1167 96.133 47.907 97.7311 47.4061C98.7356 47.0912 99.4347 46.3276 99.4182 45.5662L99.4769 45.5478L99.8204 46.6437L100.955 46.2879L98.0171 36.9144L96.8364 37.2845L97.9426 40.8134L97.8839 40.8318C97.3912 40.2198 96.5081 40.0309 95.5427 40.3335ZM96.101 41.2689C97.1447 40.9418 98.1492 41.4723 98.4906 42.5616L98.8628 43.7488C99.2492 44.9816 98.7905 45.9636 97.7142 46.301C96.6249 46.6424 95.7227 46.0727 95.3056 44.742L95.0439 43.9071C94.6308 42.5895 95.0312 41.6043 96.101 41.2689ZM104.57 37.6398L103.514 37.9711L103.814 38.9299L104.864 38.6007L106.105 42.5602C106.531 43.917 107.079 44.4328 108.71 43.9216C108.971 43.8398 109.443 43.6559 109.533 43.5991L109.237 42.6533C109.13 42.7011 108.875 42.8024 108.705 42.8556C107.87 43.1173 107.531 42.9945 107.278 42.1856L106.038 38.2327L107.591 37.746L107.29 36.7872L105.738 37.2738L105.198 35.5518L104.03 35.9178L104.57 37.6398ZM111.47 42.9918L112.658 42.6197L111.328 38.3797C111.036 37.447 111.409 36.5348 112.616 36.1565C112.825 36.0911 113.064 36.0305 113.183 36.0218L112.845 34.9456C112.702 34.9689 112.555 35.0009 112.405 35.0479C111.191 35.4282 110.918 36.2946 110.89 36.7979L110.831 36.8163L110.5 35.7595L109.319 36.1296L111.47 42.9918ZM118.472 40.9189C119.483 40.602 119.955 39.9381 120.114 39.2793L120.166 39.263L120.453 40.1762L121.588 39.8204L120.119 35.1369C119.592 33.454 118.234 33.2134 116.819 33.6571C115.286 34.1376 114.577 35.0762 114.837 36.27L115.978 35.9121C115.966 35.393 116.225 34.9393 117.092 34.6674C117.973 34.3913 118.654 34.6219 118.93 35.5026L119.143 36.1809L117.349 36.7432C115.77 37.2381 115.191 38.3152 115.567 39.5154C115.966 40.7874 117.141 41.336 118.472 40.9189ZM118.487 39.8252C117.776 40.0481 117.011 39.8938 116.762 39.098C116.57 38.4848 116.803 37.9031 117.729 37.6127L119.425 37.0811L119.664 37.8443C119.928 38.6858 119.413 39.5348 118.487 39.8252ZM124.022 31.4062C122.424 31.9072 121.712 33.3624 122.26 35.1106L122.677 36.4413C123.225 38.1894 124.612 38.9797 126.21 38.4788C127.215 38.1639 127.914 37.4003 127.897 36.6389L127.956 36.6205L128.3 37.7164L129.435 37.3606L126.496 27.9871L125.316 28.3572L126.422 31.8861L126.363 31.9045C125.87 31.2924 124.987 31.1036 124.022 31.4062ZM124.58 32.3416C125.624 32.0145 126.628 32.5449 126.97 33.6343L127.342 34.8215C127.728 36.0543 127.27 37.0363 126.193 37.3737C125.104 37.7151 124.202 37.1454 123.785 35.8147L123.523 34.9798C123.11 33.6621 123.511 32.677 124.58 32.3416ZM128.885 27.6755C129.032 28.1451 129.497 28.3719 129.967 28.2246C130.462 28.0692 130.715 27.6176 130.567 27.1479C130.418 26.6718 129.953 26.445 129.457 26.6004C128.988 26.7476 128.735 27.1993 128.885 27.6755ZM131.946 36.5734L133.127 36.2033L130.976 29.3411L129.795 29.7112L131.946 36.5734ZM135.618 35.4222L136.799 35.0521L135.601 31.2296C135.229 30.0425 135.523 28.9256 136.73 28.5474C137.663 28.255 138.391 28.6356 138.729 29.7119L140.08 34.0236L141.261 33.6535L139.793 28.97C139.31 27.4306 138.129 26.9769 136.746 27.4104C135.311 27.8603 135.091 28.8249 135.091 29.4195L135.026 29.4399L134.635 28.194L133.467 28.56L135.618 35.4222ZM146.505 33.6786C145.605 33.9608 144.924 33.7302 144.681 33.2761L143.481 33.6524C143.885 34.6217 145.022 35.2324 146.777 34.6824C148.532 34.1324 149.538 32.9073 148.945 31.0156L146.859 24.3622L145.731 24.7159L146.056 25.7531L145.997 25.7715C145.593 25.2821 144.68 24.9305 143.65 25.2536C142.13 25.73 141.291 27.1895 141.857 28.9963L142.19 30.0596C142.757 31.8664 144.281 32.5706 145.801 32.0942C146.753 31.7956 147.307 31.0921 147.388 30.4147L147.453 30.3942L147.766 31.3922C148.103 32.4685 147.712 33.3004 146.505 33.6786ZM144.26 26.1727C145.336 25.8353 146.249 26.5522 146.564 27.5567L146.889 28.5939C147.196 29.5723 146.886 30.6651 145.79 31.0086C144.727 31.3419 143.707 30.7376 143.314 29.4852L143.112 28.8394C142.719 27.587 143.145 26.5223 144.26 26.1727Z" fill="white"/>
<rect x="78.3891" y="175.856" width="93.4448" height="21.3814" rx="10.6907" transform="rotate(-17.4045 78.3891 175.856)" fill="url(#paint1_linear_23_29)"/>
<path d="M143.091 101.631C141.66 97.066 139.344 92.8278 136.276 89.1582C133.207 85.4885 129.445 82.4592 125.206 80.2432C120.966 78.0273 116.332 76.668 111.567 76.2432C106.802 75.8183 102 76.3361 97.4354 77.767C92.8706 79.1979 88.6324 81.5138 84.9628 84.5827C81.2931 87.6515 78.2638 91.4131 76.0478 95.6526C73.8319 99.8921 72.4726 104.527 72.0478 109.291C71.6229 114.056 72.1407 118.858 73.5716 123.423" stroke="white" stroke-opacity="0.14" stroke-width="30"/>
<path d="M111.866 76.1492C107.075 75.7326 102.245 76.2592 97.6521 77.699C93.0589 79.1389 88.7925 81.4637 85.0965 84.5407C81.4006 87.6178 78.3474 91.3868 76.1113 95.6327C73.8752 99.8786 72.5 104.518 72.0643 109.286C71.6285 114.055 72.1407 118.858 73.5716 123.423" stroke="url(#paint2_linear_23_29)" stroke-width="30"/>
<rect x="69.2411" y="141.378" width="92.6529" height="3.95952" rx="1.97976" transform="rotate(-17.4045 69.2411 141.378)" fill="#2A3A6A"/>
<rect x="73.9786" y="156.491" width="60.1848" height="3.95952" rx="1.97976" transform="rotate(-17.4045 73.9786 156.491)" fill="#2A3A6A"/>
<rect x="71.6099" y="148.935" width="104.531" height="3.95952" rx="1.97976" transform="rotate(-17.4045 71.6099 148.935)" fill="#2A3A6A"/>
<defs>
<linearGradient id="paint0_linear_23_29" x1="-40.3798" y1="-53.3184" x2="147.025" y2="219.739" gradientUnits="userSpaceOnUse">
<stop stop-color="#434D9C"/>
<stop offset="1" stop-color="#434D9C" stop-opacity="0"/>
</linearGradient>
<linearGradient id="paint1_linear_23_29" x1="74.8255" y1="186.943" x2="181.733" y2="186.943" gradientUnits="userSpaceOnUse">
<stop stop-color="#6C85F7"/>
<stop offset="1" stop-color="#6C85F7" stop-opacity="0"/>
</linearGradient>
<linearGradient id="paint2_linear_23_29" x1="56.2087" y1="150.114" x2="97.8605" y2="77.2341" gradientUnits="userSpaceOnUse">
<stop stop-color="#F08F6B"/>
<stop offset="1" stop-color="#6C85F7"/>
</linearGradient>
</defs>
</svg>
