<svg width="25" height="25" viewBox="0 0 25 25" fill="none" xmlns="http://www.w3.org/2000/svg">
<g id="iconfinder_1175271_litecoin_ltc_icon 1" clip-path="url(#clip0_23_95)">
<path id="LTC" d="M13.932 2.38105C8.20666 1.44295 2.8049 5.32385 1.86679 11.0493C0.928667 16.7748 4.8095 22.1764 10.5349 23.1145C16.2604 24.0526 21.6621 20.172 22.6002 14.4465C23.5384 8.72102 19.6577 3.31919 13.932 2.38105ZM15.4293 18.4625L7.32924 17.1353L8.54258 13.9967L7.07007 14.6875L7.68307 12.9616L9.22379 12.2353L11.6441 5.97519L14.1728 6.38951L12.5084 10.6876L16.1718 8.96125L15.4841 10.741L11.8227 12.4582L10.6634 15.4521L16.2349 16.365L15.4293 18.4625Z" fill="white"/>
</g>
<defs>
<clipPath id="clip0_23_95">
<rect width="21" height="21" fill="white" transform="translate(3.56539 0.68248) rotate(9.30519)"/>
</clipPath>
</defs>
</svg>
