<svg width="46" height="35" viewBox="0 0 46 35" fill="none" xmlns="http://www.w3.org/2000/svg">
<rect width="46" height="35" fill="#E5E5E5"/>
<g id="Desktop - 1" clip-path="url(#clip0_0_1)">
<rect width="1440" height="3860" transform="translate(-311 -693)" fill="#110D28"/>
<path id="Vector 1" d="M-327 226C-278.667 144 -77.5069 24.7112 214 61C579.5 106.5 780 -20.5 924 -307.5C1010.74 -480.383 1017.5 -656.333 1020 -688.5" stroke="url(#paint0_linear_0_1)" stroke-opacity="0.6"/>
<path id="Vector 2" d="M-314.5 388C-290.5 254 -39.0602 -63.4565 251 -17C622.5 42.5 905.482 -59.6213 1014.5 -307.5C1104 -511 1101.5 -660.833 1104 -693" stroke="url(#paint1_linear_0_1)" stroke-opacity="0.6"/>
<g id="Group 1">
<g id="Vector 7" filter="url(#filter0_d_0_1)">
<path d="M12.0177 21.0342C21.1363 16.254 33.2541 11.5466 33.2541 11.5466" stroke="#01A3FF" stroke-width="3" stroke-linecap="round" stroke-linejoin="round"/>
</g>
<g id="Vector 8" filter="url(#filter1_f_0_1)">
<path d="M12.0177 21.0342C21.1363 16.254 33.2541 11.5466 33.2541 11.5466" stroke="#01A3FF" stroke-opacity="0.5" stroke-width="3" stroke-linecap="round" stroke-linejoin="round"/>
</g>
<g id="Vector 9" filter="url(#filter2_f_0_1)">
<path d="M12.0177 21.0342C21.1363 16.254 33.2541 11.5466 33.2541 11.5466" stroke="#01A3FF" stroke-width="3" stroke-linecap="round" stroke-linejoin="round"/>
</g>
</g>
</g>
<defs>
<filter id="filter0_d_0_1" x="1.51736" y="2.04617" width="44.2371" height="32.4884" filterUnits="userSpaceOnUse" color-interpolation-filters="sRGB">
<feFlood flood-opacity="0" result="BackgroundImageFix"/>
<feColorMatrix in="SourceAlpha" type="matrix" values="0 0 0 0 0 0 0 0 0 0 0 0 0 0 0 0 0 0 127 0" result="hardAlpha"/>
<feOffset dx="1" dy="2"/>
<feGaussianBlur stdDeviation="5"/>
<feColorMatrix type="matrix" values="0 0 0 0 0.00392157 0 0 0 0 0.639216 0 0 0 0 1 0 0 0 1 0"/>
<feBlend mode="normal" in2="BackgroundImageFix" result="effect1_dropShadow_0_1"/>
<feBlend mode="normal" in="SourceGraphic" in2="effect1_dropShadow_0_1" result="shape"/>
</filter>
<filter id="filter1_f_0_1" x="0.517365" y="0.0461731" width="44.2371" height="32.4884" filterUnits="userSpaceOnUse" color-interpolation-filters="sRGB">
<feFlood flood-opacity="0" result="BackgroundImageFix"/>
<feBlend mode="normal" in="SourceGraphic" in2="BackgroundImageFix" result="shape"/>
<feGaussianBlur stdDeviation="5" result="effect1_foregroundBlur_0_1"/>
</filter>
<filter id="filter2_f_0_1" x="8.51736" y="8.04617" width="28.2371" height="16.4884" filterUnits="userSpaceOnUse" color-interpolation-filters="sRGB">
<feFlood flood-opacity="0" result="BackgroundImageFix"/>
<feBlend mode="normal" in="SourceGraphic" in2="BackgroundImageFix" result="shape"/>
<feGaussianBlur stdDeviation="1" result="effect1_foregroundBlur_0_1"/>
</filter>
<linearGradient id="paint0_linear_0_1" x1="-129.499" y1="207.5" x2="1050.5" y2="-410.001" gradientUnits="userSpaceOnUse">
<stop stop-color="#92B0DE"/>
<stop offset="0.90625" stop-color="#434D9C"/>
<stop offset="1" stop-color="#434D9C" stop-opacity="0.36"/>
</linearGradient>
<linearGradient id="paint1_linear_0_1" x1="-92.4994" y1="207.5" x2="1087.5" y2="-410" gradientUnits="userSpaceOnUse">
<stop stop-color="#92B0DE"/>
<stop offset="0.854167" stop-color="#434D9C"/>
<stop offset="1" stop-color="#434D9C" stop-opacity="0.36"/>
</linearGradient>
<clipPath id="clip0_0_1">
<rect width="1440" height="3860" fill="white" transform="translate(-311 -693)"/>
</clipPath>
</defs>
</svg>
